<?xml version="1.0" standalone="no"?>
<!DOCTYPE svg PUBLIC "-//W3C//DTD SVG 20010904//EN"
 "http://www.w3.org/TR/2001/REC-SVG-20010904/DTD/svg10.dtd">
<svg version="1.0" xmlns="http://www.w3.org/2000/svg"
 width="312.000000pt" height="93.000000pt" viewBox="0 0 312.000000 93.000000"
 preserveAspectRatio="xMidYMid meet">

<g transform="translate(0.000000,93.000000) scale(0.100000,-0.100000)"
fill="#000000" stroke="none">
<path d="M160 555 c0 -229 2 -265 15 -265 8 0 15 -7 15 -15 0 -11 12 -15 50
-15 l50 0 0 265 c0 170 -4 265 -10 265 -5 0 -10 7 -10 15 0 12 -13 15 -55 15
l-55 0 0 -265z"/>
<path d="M545 661 c-47 -25 -55 -26 -55 -6 0 11 -12 15 -50 15 l-50 0 0 -275
c0 -177 4 -275 10 -275 6 0 10 -7 10 -15 0 -11 12 -15 50 -15 l50 0 0 105 0
106 28 -21 c71 -53 176 -24 222 60 20 36 24 59 25 121 0 67 -3 81 -30 124 -16
26 -42 57 -56 68 -40 29 -106 33 -154 8z m103 -103 c7 -7 12 -39 12 -74 0 -53
-4 -67 -26 -93 -19 -23 -34 -31 -59 -31 -50 0 -65 21 -65 90 0 48 4 64 26 89
20 24 34 31 63 31 20 0 42 -5 49 -12z"/>
<path d="M960 668 c-82 -23 -130 -93 -130 -189 1 -194 230 -302 361 -170 83
82 78 214 -10 302 -63 64 -134 82 -221 57z m142 -110 c35 -29 31 -131 -8 -173
-25 -27 -79 -34 -114 -15 -41 22 -36 131 7 174 29 29 87 35 115 14z"/>
<path d="M1468 661 c-45 -25 -58 -26 -58 -6 0 11 -12 15 -50 15 l-50 0 0 -275
c0 -238 2 -275 15 -275 8 0 15 -7 15 -15 0 -11 12 -15 50 -15 l50 0 0 105 0
104 36 -24 c44 -30 84 -31 140 -6 49 22 80 69 94 140 32 172 -113 323 -242
252z m106 -107 c34 -33 11 -160 -32 -183 -28 -15 -77 -14 -90 2 -33 41 -25
131 15 171 30 30 83 35 107 10z"/>
<path d="M1890 669 c-86 -26 -133 -95 -133 -194 0 -137 111 -239 241 -221 67
9 82 21 82 66 0 31 -3 38 -15 34 -10 -4 -15 0 -15 11 0 13 -5 15 -17 9 -10 -4
-39 -9 -65 -12 -64 -5 -88 19 -88 89 0 45 4 55 34 85 28 28 41 34 78 34 24 0
54 -7 66 -16 22 -15 22 -14 22 25 0 60 -33 91 -102 96 -29 3 -69 0 -88 -6z"/>
<path d="M2250 668 c-117 -33 -166 -172 -104 -296 85 -170 329 -160 380 15 51
177 -101 331 -276 281z m138 -106 c38 -24 35 -135 -4 -177 -30 -32 -94 -35
-124 -5 -37 37 -20 152 27 179 21 12 83 14 101 3z"/>
<path d="M2757 660 c-44 -24 -57 -25 -57 -5 0 11 -12 15 -50 15 l-50 0 0 -190
c0 -120 4 -190 10 -190 6 0 10 -7 10 -15 0 -11 12 -15 49 -15 l49 0 4 129 c3
121 5 131 27 155 26 28 69 34 89 14 8 -8 12 -54 12 -140 0 -79 4 -128 10 -128
6 0 10 -7 10 -15 0 -11 12 -15 51 -15 l50 0 -3 158 c-3 150 -4 161 -28 195
-45 66 -114 84 -183 47z"/>
</g>
</svg>
